PathFileType	4	(X/Y/Z)	/Users/itak/Documents/Research/Walk-IL/dataset/trc/00296_00010.trc
DataRate	CameraRate	NumFrames	NumMarkers	Units	OrigDataRate	OrigDataStartFrame	OrigNumFrames
100.000000	100.000000	4	53	mm	100.000000	585	669
Frame#	Time	RPSI			LPSI			L3			STRN			T10			C7			CLAV			RBAK			LBAK			LSHO			LUPA			LAEL			LAOL			LWTS			LWPS			LFRA			LIFD			LHPS			LHTS			RSHO			RUPA			RAEL			RAOL			RWTS			RWPS			RFRA			RIFD			RHTS			RHPS			RBHD			LFHD			RFHD			LBHD			RHIP			RASI			LASI			LKNE			LTHI			LANK			LTIP			LTOE			LMT1			LMT5			LHEE			RKNE			RTHI			RANK			RTIP			RTOE			RMT1			RMT5			RHEE			LHIP			
		X1	Y1	Z1	X2	Y2	Z2	X3	Y3	Z3	X4	Y4	Z4	X5	Y5	Z5	X6	Y6	Z6	X7	Y7	Z7	X8	Y8	Z8	X9	Y9	Z9	X10	Y10	Z10	X11	Y11	Z11	X12	Y12	Z12	X13	Y13	Z13	X14	Y14	Z14	X15	Y15	Z15	X16	Y16	Z16	X17	Y17	Z17	X18	Y18	Z18	X19	Y19	Z19	X20	Y20	Z20	X21	Y21	Z21	X22	Y22	Z22	X23	Y23	Z23	X24	Y24	Z24	X25	Y25	Z25	X26	Y26	Z26	X27	Y27	Z27	X28	Y28	Z28	X29	Y29	Z29	X30	Y30	Z30	X31	Y31	Z31	X32	Y32	Z32	X33	Y33	Z33	X34	Y34	Z34	X35	Y35	Z35	X36	Y36	Z36	X37	Y37	Z37	X38	Y38	Z38	X39	Y39	Z39	X40	Y40	Z40	X41	Y41	Z41	X42	Y42	Z42	X43	Y43	Z43	X44	Y44	Z44	X45	Y45	Z45	X46	Y46	Z46	X47	Y47	Z47	X48	Y48	Z48	X49	Y49	Z49	X50	Y50	Z50	X51	Y51	Z51	X52	Y52	Z52	X53	Y53	Z53	

586	5.850000000000001	281.9176330566406	1010.708129882812	1024.269775390625	293.046875	1003.708984375	1198.292114257812	271.6275939941406	1074.201171875	1110.558959960938	29.45298385620117	1252.094604492188	1138.266235351562	294.26123046875	1187.657348632812	1107.27978515625	251.5468444824219	1433.10595703125	1132.952270507812	96.56150817871094	1349.036743164062	1137.205078125	297.5172729492188	1298.226196289062	1050.928955078125	277.350830078125	1392.266357421875	1232.1904296875	194.3244934082031	1399.221069335938	1292.023071289062	237.8126373291016	1287.297973632812	1365.45166015625	245.4788208007812	1088.179077148438	1394.794677734375	289.7716064453125	1068.82568359375	1322.78369140625	151.5041198730469	867.3926391601562	1391.133544921875	202.1179962158203	859.5034790039062	1442.571044921875	234.4897155761719	985.9140625	1416.843627929688	151.8209686279297	683.2838134765625	1408.468383789062	197.353271484375	771.123291015625	1448.706787109375	134.6946411132812	770.512939453125	1426.257080078125	175.0828399658203	1416.212158203125	981.159912109375	184.21484375	1364.785034179688	912.248291015625	246.7850646972656	1116.464111328125	841.7590942382812	257.4014282226562	1095.501220703125	932.9271240234375	183.0316619873047	876.7054443359375	814.402587890625	247.8115386962891	897.48779296875	763.6360473632812	242.0325775146484	1052.606323242188	811.369873046875	229.4698791503906	699.8793334960938	790.8659057617188	191.7595062255859	763.4717407226562	770.3656616210938	252.7698822021484	786.1718139648438	740.6632690429688	162.9912567138672	1608.669555664062	1078.915649414062	-13.40815544128418	1562.984130859375	1187.873779296875	-7.745821475982666	1564.826049804688	1095.21142578125	157.4654388427734	1596.05517578125	1223.89306640625	174.4325408935547	958.5619506835938	927.9824829101562	61.32284164428711	959.504638671875	1005.7490234375	90.85586547851562	960.1719360351562	1256.11962890625	106.6796722412109	496.5137939453125	1300.2958984375	140.2918701171875	636.25732421875	1313.796875	166.6527252197266	47.97234725952148	1322.111328125	131.5307922363281	267.3892517089844	1320.231079101562	-34.19962692260742	39.98350524902344	1238.428100585938	40.53968048095703	30.99004936218262	1207.2236328125	43.08837509155273	43.22060775756836	1318.9443359375	218.2839813232422	41.80049514770508	1268.725219726562	164.3691864013672	489.09326171875	927.005859375	124.2214126586914	745.3731079101562	924.9724731445312	388.6705932617188	106.5010986328125	833.7496337890625	200.5472717285156	365.1201782226562	919.3071899414062	318.0034790039062	43.54452514648438	994.9910278320312	377.3648986816406	61.02171325683594	982.945556640625	313.0256652832031	43.98575592041016	883.3421630859375	453.615478515625	135.7585144042969	835.3080444335938	231.6071319580078	956.1682739257812	1299.01025390625	
587	5.86	280.5279541015625	1010.469360351562	1029.44140625	288.9234008789062	1004.395141601562	1203.694580078125	268.6119995117188	1074.564086914062	1115.832763671875	25.49832153320312	1251.799560546875	1139.969848632812	291.169921875	1188.075439453125	1113.189208984375	247.5193023681641	1433.340942382812	1138.918090820312	92.50823211669922	1348.833618164062	1140.326538085938	295.0453491210938	1298.875732421875	1057.227783203125	271.6523742675781	1392.130737304688	1238.476806640625	187.5514678955078	1398.658203125	1296.683837890625	229.5611877441406	1286.79248046875	1370.864990234375	236.2677154541016	1087.945922851562	1401.078979492188	281.8408508300781	1068.107055664062	1330.014770507812	141.1781311035156	867.9845581054688	1397.146484375	190.9847869873047	860.0045776367188	1449.405639648438	224.4547119140625	985.7997436523438	1423.401245117188	139.9320983886719	683.8607788085938	1415.707153320312	185.4103393554688	771.6317749023438	1456.00341796875	123.1248474121094	771.3479614257812	1432.623413085938	173.5225372314453	1416.9345703125	985.9059448242188	184.0415802001953	1365.802978515625	916.9964599609375	248.9033203125	1117.93603515625	847.0654907226562	258.1034851074219	1096.843017578125	938.4335327148438	184.4431915283203	878.4915771484375	818.8982543945312	249.7455596923828	898.8077392578125	768.7060546875	244.4288635253906	1053.968017578125	816.4865112304688	229.9576568603516	701.3909301757812	796.908203125	192.9127197265625	764.9973754882812	775.5867309570312	254.2925567626953	787.1688232421875	746.3677368164062	160.189453125	1608.97900390625	1084.344970703125	-17.76824951171875	1563.371215820312	1190.869262695312	-10.88761234283447	1565.586059570312	1098.274047851562	152.6817321777344	1595.711303710938	1229.106689453125	174.6081237792969	957.8709106445312	931.9130859375	60.44941329956055	959.1277465820312	1008.127868652344	86.03227233886719	960.2026977539062	1258.935546875	104.9408798217773	496.0992126464844	1302.362060546875	137.0141448974609	636.2879638671875	1316.519897460938	166.6033630371094	47.94026184082031	1322.22412109375	130.6713104248047	267.0675048828125	1321.255249023438	-34.26107025146484	39.87812805175781	1238.34326171875	40.53479385375977	31.00114250183105	1207.196411132812	43.0819206237793	43.18473815917969	1318.923583984375	218.2393646240234	41.86494064331055	1268.864379882812	157.6824951171875	488.3322448730469	930.896484375	121.9115753173828	745.15087890625	928.4691772460938	388.029052734375	110.3919677734375	837.234375	194.9835510253906	364.9660949707031	922.6776733398438	317.8456726074219	43.181396484375	995.4789428710938	376.4947509765625	61.06802368164062	985.0189819335938	313.276123046875	45.19958877563477	884.3717041015625	452.2354736328125	140.9768218994141	840.4129638671875	226.0845336914062	956.9034423828125	1303.683349609375	
588	5.87	279.3522644042969	1010.104858398438	1034.567138671875	284.90673828125	1004.969055175781	1209.005859375	265.7174987792969	1074.832763671875	1121.026733398438	21.73501968383789	1251.412963867188	1141.4912109375	288.1678161621094	1188.387817382812	1118.997802734375	243.5982055664062	1433.479370117188	1144.713745117188	88.6558837890625	1348.611938476562	1143.35400390625	292.6608581542969	1299.408935546875	1063.415771484375	266.0607604980469	1391.90234375	1244.562133789062	180.9183044433594	1398.019409179688	1301.142333984375	221.4560546875	1286.172607421875	1376.010009765625	227.1132202148438	1087.603637695312	1407.077392578125	273.8626098632812	1067.2451171875	1336.95947265625	130.8699340820312	868.4998779296875	1402.988525390625	179.9096832275391	860.4793090820312	1456.032836914062	214.4605712890625	985.6049194335938	1429.698974609375	128.0133819580078	684.402099609375	1422.807006835938	173.5160064697266	772.1102905273438	1463.093017578125	111.5812072753906	772.106201171875	1438.830810546875	172.0878753662109	1417.53564453125	990.5045166015625	183.9775238037109	1366.638671875	921.6378173828125	250.9638519287109	1119.143920898438	852.4647216796875	258.6750183105469	1097.931274414062	944.0134887695312	185.4629516601562	880.1370849609375	823.30859375	251.5848999023438	899.8432006835938	773.9642333984375	246.7650756835938	1055.0693359375	821.7265014648438	229.6252136230469	702.68310546875	802.5827026367188	193.5670776367188	766.4535522460938	780.4827270507812	255.4944915771484	787.9732666015625	752.1048583984375	157.3832244873047	1609.231689453125	1089.653686523438	-22.03706359863281	1563.55029296875	1193.78271484375	-13.97439670562744	1566.188842773438	1101.271728515625	147.9598999023438	1595.272827148438	1234.191772460938	175.0672760009766	957.1119384765625	935.7894897460938	59.763916015625	958.6807250976562	1010.336608886719	81.37553405761719	960.1181640625	1261.5263671875	103.1712951660156	495.6683044433594	1304.371459960938	133.7217712402344	636.2338256835938	1319.113525390625	166.5401763916016	47.89542770385742	1322.37841796875	129.7458953857422	266.7368469238281	1322.256591796875	-34.31413269042969	39.77582550048828	1238.261962890625	40.53791046142578	31.00893020629883	1207.167602539062	43.07391738891602	43.14241790771484	1318.91162109375	218.2077789306641	41.92041778564453	1269.03759765625	150.8110046386719	487.6095886230469	934.7359619140625	119.5813980102539	744.9569702148438	931.8760986328125	387.2565307617188	114.5061874389648	841.0740356445312	189.2640075683594	364.9096069335938	926.1054077148438	317.6201171875	42.75209426879883	996.150634765625	375.5262756347656	61.1389274597168	987.3113403320312	313.5052795410156	46.63430404663086	885.5756225585938	450.6210327148438	146.3912506103516	845.9403076171875	220.6345825195312	957.5459594726562	1308.2275390625	
589	5.88	278.3708190917969	1009.631286621094	1039.641967773438	281.0123596191406	1005.443725585938	1214.219360351562	262.9385986328125	1075.020385742188	1126.131713867188	18.15943908691406	1250.972900390625	1142.833984375	285.2561950683594	1188.6162109375	1124.702270507812	239.7889099121094	1433.5419921875	1150.343994140625	84.97743988037109	1348.408935546875	1146.279907226562	290.3696594238281	1299.845703125	1069.491577148438	260.5865173339844	1391.6025390625	1250.449584960938	174.4338531494141	1397.32666015625	1305.410400390625	213.5126647949219	1285.460083007812	1380.895263671875	218.0423278808594	1087.1650390625	1412.781005859375	265.8545227050781	1066.2626953125	1343.597045898438	120.6166458129883	868.928955078125	1408.659057617188	168.9175109863281	860.92529296875	1462.4208984375	204.5319519042969	985.3466186523438	1435.7197265625	116.073356628418	684.9359741210938	1429.745239257812	161.6890563964844	772.5767211914062	1469.948974609375	100.0865631103516	772.8215942382812	1444.869262695312	170.7865600585938	1418.03466796875	994.9600219726562	184.0141906738281	1367.314086914062	926.1719970703125	252.9347381591797	1120.098999023438	857.930908203125	259.11328125	1098.78759765625	949.6353759765625	186.1348419189453	881.636474609375	827.6591796875	253.2997589111328	900.61328125	779.3799438476562	249.0076446533203	1055.919921875	827.06494140625	228.5513763427734	703.7649536132812	807.8943481445312	193.7469787597656	767.849853515625	785.0869140625	256.3652648925781	788.5965576171875	757.8390502929688	154.5796203613281	1609.442749023438	1094.832763671875	-26.20715522766113	1563.545776367188	1196.605590820312	-17.00095367431641	1566.650756835938	1104.187866210938	143.3042297363281	1594.769287109375	1239.145141601562	175.7876129150391	956.3026123046875	939.6080322265625	59.24257278442383	958.1910400390625	1012.373168945312	76.88583374023438	959.9434204101562	1263.890014648438	101.3552703857422	495.2373352050781	1306.326293945312	130.4212036132812	636.1297607421875	1321.590576171875	166.4606018066406	47.83800506591797	1322.573364257812	128.7734680175781	266.4005126953125	1323.243041992188	-34.35635757446289	39.67932891845703	1238.187133789062	40.54803085327148	31.01357650756836	1207.138793945312	43.06372833251953	43.09078598022461	1318.91259765625	218.1887664794922	41.9705810546875	1269.248657226562	143.8169860839844	486.9891357421875	938.5169067382812	117.2946014404297	744.8057250976562	935.1978149414062	386.3547973632812	118.864143371582	845.2752075195312	183.4209289550781	364.9901123046875	929.5833129882812	317.2450561523438	42.26336669921875	997.000244140625	374.3919067382812	61.29487228393555	989.8311767578125	313.7060241699219	48.33251571655273	886.9561767578125	448.7810363769531	151.9872436523438	851.9011840820312	215.2949066162109	958.1099243164062	1312.63134765625	
